/* XPM */
static char *result[] = {
/* columns rows colors chars-per-pixel */
"32 32 210 2 ",
"   c #000001",
".  c #00000D",
"X  c #000013",
"o  c #00001C",
"O  c #00230E",
"+  c #000023",
"@  c #00002C",
"#  c #001D2B",
"$  c #001826",
"%  c #000034",
"&  c #00003D",
"*  c #010F32",
"=  c #001E37",
"-  c #00332B",
";  c #002E32",
":  c #003E3D",
">  c #00433D",
",  c #000244",
"<  c #000B44",
"1  c #01024B",
"2  c #000E4C",
"3  c #001644",
"4  c #001B45",
"5  c #00134D",
"6  c #001C4C",
"7  c #020154",
"8  c #010C54",
"9  c #03005B",
"0  c #010B5A",
"q  c #001453",
"w  c #001C54",
"e  c #01145B",
"r  c #011B5A",
"t  c #00244C",
"y  c #002A4B",
"u  c #002B45",
"i  c #003644",
"p  c #003249",
"a  c #003949",
"s  c #002353",
"d  c #012B53",
"f  c #01215C",
"g  c #00295F",
"h  c #003453",
"j  c #003A56",
"k  c #01345B",
"l  c #003D5B",
"z  c #030064",
"x  c #04036B",
"c  c #030D6A",
"v  c #010B65",
"b  c #021566",
"n  c #021D63",
"m  c #02146A",
"M  c #06196D",
"N  c #050E78",
"B  c #041373",
"V  c #051C73",
"C  c #05157B",
"Z  c #051A7B",
"A  c #012462",
"S  c #002B64",
"D  c #022368",
"F  c #012B6D",
"G  c #003E66",
"H  c #02336A",
"J  c #013C6D",
"K  c #022474",
"L  c #022D73",
"P  c #04247B",
"I  c #042B7B",
"U  c #033473",
"Y  c #023B74",
"T  c #033C79",
"R  c #04307F",
"E  c #00445C",
"W  c #014A5A",
"Q  c #00515B",
"!  c #004562",
"~  c #004C63",
"^  c #01446A",
"/  c #014D6C",
"(  c #005465",
")  c #00546B",
"_  c #005C6D",
"`  c #014574",
"'  c #014A72",
"]  c #014C7B",
"[  c #02457D",
"{  c #015273",
"}  c #005B73",
"|  c #02527C",
" . c #025D7B",
".. c #00606E",
"X. c #006173",
"o. c #006A74",
"O. c #00657A",
"+. c #006D7B",
"@. c #00727B",
"#. c #070083",
"$. c #061483",
"%. c #051C82",
"&. c #081D8A",
"*. c #062383",
"=. c #062888",
"-. c #043582",
";. c #033B83",
":. c #09219B",
">. c #092D93",
",. c #083D94",
"<. c #0C27A7",
"1. c #0D2BA3",
"2. c #0E3CAF",
"3. c #0F3FB7",
"4. c #113DB7",
"5. c #034484",
"6. c #0A428C",
"7. c #03488A",
"8. c #015383",
"9. c #03538D",
"0. c #055F82",
"q. c #035394",
"w. c #025F93",
"e. c #05569A",
"r. c #07479E",
"t. c #016D83",
"y. c #016E88",
"u. c #007483",
"i. c #017C8A",
"p. c #02748B",
"a. c #026D94",
"s. c #027391",
"d. c #04759E",
"f. c #08779F",
"g. c #0849A3",
"h. c #104AA7",
"j. c #055BA7",
"k. c #0E43B4",
"l. c #0D53BF",
"z. c #1158B4",
"x. c #0864AC",
"c. c #0467A8",
"v. c #0573AA",
"b. c #0778AA",
"n. c #0866B9",
"m. c #0A69B9",
"M. c #0B6DB3",
"N. c #1161BA",
"B. c #067BB8",
"V. c #0877B6",
"C. c #184ACD",
"Z. c #1748C7",
"A. c #125CC8",
"S. c #1756D6",
"D. c #0A6CC5",
"F. c #0D6CCC",
"G. c #0D62C9",
"H. c #116ACB",
"J. c #0B77CC",
"K. c #1070C7",
"L. c #146AD9",
"P. c #1A4DFF",
"I. c #195AFF",
"U. c #0F7AEB",
"Y. c #0F71E2",
"T. c #1563FE",
"R. c #1964FF",
"E. c #146AF5",
"W. c #127FFD",
"Q. c #1377FE",
"!. c #116BE7",
"~. c #018092",
"^. c #0484A5",
"/. c #0689BF",
"(. c #078BB1",
"). c #0598B9",
"_. c #019BA8",
"`. c #01A6AD",
"'. c #03AEBF",
"]. c #01B6BC",
"[. c #0781C6",
"{. c #0987C8",
"}. c #0B92D4",
"|. c #04ACC5",
" X c #02BAC3",
".X c #04B2C6",
"XX c #07B2D7",
"oX c #0E89E9",
"OX c #1383E0",
"+X c #0A97E9",
"@X c #0E8EF6",
"#X c #1489FF",
"$X c #0F90FC",
"%X c #1090FC",
"&X c #0AA4E6",
"*X c #09ADED",
"=X c #07BBE7",
"-X c #0AB5E3",
";X c #0CA4F9",
":X c #0ABEFB",
">X c #09B7F5",
",X c #03D5DF",
"<X c #07C4E4",
"1X c #03D5E0",
"2X c #0CC8FF",
"3X c #09C5F8",
"4X c #06D4F8",
"5X c #05EAFB",
"6X c #03F2FD",
"7X c None",
/* pixels */
"7X7X7X7X7X7X7X7X7X7X7X7Xo & , , , , & o 7X7X7X7X7X7X7X7X7X7X7X7X",
"7X7X7X7X7X7X7X7X7XX 1 V &.B . o @   c $.c 1 X 7X7X7X7X7X7X7X7X7X",
"7X7X7X7X7X7X7X% , P $.z z $.:.<.<.:.B c C &.Z 1 & 7X7X7X7X7X7X7X",
"7X7X7X7X7X7X& e 8 9 P A.S.S.C.Z.Z.S.2.z 0 1 Z b % , 7X7X7X7X7X7X",
"7X7X7X7X7X, < 1 v J.OXN.,.M 7 e 1 & x *.=.%.e 1 8 1 & 7X7X7X7X7X",
"7X7X7X7X& 5 1 s.-X[.D 1 9 S U N f.{.c.U g A =.I 8 0 , % 7X7X7X7X",
"7X7X7X% , s , ).f.& 7 ) } ' J A ) s.b.K.A.,.$ L -.8 D I @ 7X7X7X",
"7X7XX U Y 5 5.#.& r I / 6 @   + .     % 6.S.k.a L $.2 -.L . 7X7X",
"7X7X3 9.f ` ;.x f *.8 % & [ n.9.9.V.5., o * C.k.O Z Z 6 6.< 7X7X",
"7XX | ' k 8.x q R < < w + j.#XD.[.2Xv.  f ,   C.>.: &.e U 5.o 7X",
"7Xt y.t  .U 7 U r & 5 8   x.W.J.{.3X/.F w 5 & r &.p H Z s [ & 7X",
"7X! X.E O.1 k.6.+ 5 1 y F.E.Q.$X;X:X4X<X7 6 5 % M 0 y *.D 6 & 7X",
"< % s } ) x L.d , w @ x.I.R.U.oX+X&X=XXX9 6 5 < r B a T D y 2 & ",
", m 9 C n r.m.  q q # H.P.K.' j.j.-.K v f w q 2 2 Z t j 4.U 4 , ",
", &.0 P , j.b.  w q # H.P.F.a.c.c.q.L e S w q q , I r - S.,.. , ",
"1 *.8 =., V.b.  w w , w.R.I.Q.oX;X>X=Xb.7 g r e 1 K f > A.h.Q 6 ",
", V e -.9 ^.^.  6 w f t c.Y.U.oX+X*X4X5Xv.1 A b 8 C r ; K.g.o.y ",
"& , e -.x s.).  s q w f 5 G ] | 8.F {.6X|., S b 0 %.r ; J.e.@.6 ",
", 2 q T Z ^ .X@ 6 5 q d E G G J J 7 /.6X.X& g 8 e C h W OX| ( & ",
"& 1 e H 7., ].u.@ s @ c.E.!.U.oX+X&X4X6X^.% f < K b = O.}.2 % < ",
"7X, o 2.z.b ) i.& w X n.R.T.W.%X;X:X3X)., w 5 & I 6 = (./.9 D 7X",
"7X< Y =.L.l x E O.% 2 ^ | n.W.F.{.3Xv.  s w   h.1.: E -X] $.2 7X",
"7Xo 7.h G.M.S e ..X.% ,   j.#XD.J.2Xv.% w   e.S.s   `.|.9 -.. 7X",
"7X7X3 8.A OXt.S & } o.s % T n.7.9.B.Y   % b.H.w i i.,XH ;.5 7X7X",
"7X7XX ` ' q.&X} H , E o.} j X % +   W f.}.m.% p ^ _.i.z Y X 7X7X",
"7X7X7X@ | u c.-Xp.8 1 < E } O.{ ~. X|.(.G $ E } +.1 , 3 % 7X7X7X",
"7X7X7X7X% 5 + a.<X'.{ , & , 3 & ~ +.l @ 3 ( t.X.q k t & 7X7X7X7X",
"7X7X7X7X7X& s @ ! |.,X].u.p.} ) } k ~ O.@.+.E s ! & < 7X7X7X7X7X",
"7X7X7X7X7X7X, & E E +.`.o.+.@.@.@.+.+...E t } j h , 7X7X7X7X7X7X",
"7X7X7X7X7X7X7X& t t.t.( ( j E E E E j ( o.p.O.< % 7X7X7X7X7X7X7X",
"7X7X7X7X7X7X7X7X7XX t _ @._ , h y < +.u._ 4 o 7X7X7X7X7X7X7X7X7X",
"7X7X7X7X7X7X7X7X7X7X7X7Xo & & , & & % o 7X7X7X7X7X7X7X7X7X7X7X7X"
};
