/* XPM */
static char *result[] = {
/* columns rows colors chars-per-pixel */
"64 64 242 2 ",
"   c #000000",
".  c #00000D",
"X  c #010D00",
"o  c #000014",
"O  c #00001C",
"+  c #000C1B",
"@  c #00180D",
"#  c #000023",
"$  c #00002C",
"%  c #000C2A",
"&  c #01142A",
"*  c #000034",
"=  c #00003D",
"-  c #000B3C",
";  c #000C37",
":  c #00123D",
">  c #001B3A",
",  c #00243C",
"<  c #012533",
"1  c #032D32",
"2  c #00251D",
"3  c #000243",
"4  c #000B45",
"5  c #00024B",
"6  c #000D4A",
"7  c #001344",
"8  c #001B45",
"9  c #00134C",
"0  c #001B4C",
"q  c #010252",
"w  c #000C53",
"e  c #02015B",
"r  c #020C5C",
"t  c #001453",
"y  c #001B53",
"u  c #01145C",
"i  c #011B5B",
"p  c #00234C",
"a  c #002848",
"s  c #013547",
"d  c #002354",
"f  c #002B54",
"g  c #00245C",
"h  c #002A5B",
"j  c #003453",
"k  c #003A56",
"l  c #00345B",
"z  c #003C5B",
"x  c #08385E",
"c  c #030063",
"v  c #030D64",
"b  c #04016D",
"n  c #020E6A",
"m  c #080066",
"M  c #021363",
"N  c #011C63",
"B  c #03146B",
"V  c #031A6B",
"C  c #060576",
"Z  c #051373",
"A  c #041D73",
"S  c #05197B",
"D  c #012362",
"F  c #012B63",
"G  c #03246C",
"H  c #022C6D",
"J  c #013362",
"K  c #013B62",
"L  c #01346B",
"P  c #013C6C",
"I  c #0D3065",
"U  c #032375",
"Y  c #04257B",
"T  c #042B78",
"R  c #003D72",
"E  c #033A7B",
"W  c #053478",
"Q  c #00445C",
"!  c #014756",
"~  c #005158",
"^  c #014363",
"/  c #004B63",
"(  c #014B6C",
")  c #03446B",
"_  c #005366",
"`  c #00546A",
"'  c #005B6C",
"]  c #055967",
"[  c #004475",
"{  c #014B74",
"}  c #01457B",
"|  c #014A7A",
" . c #0F437F",
".. c #015374",
"X. c #015D75",
"o. c #015B7C",
"O. c #02537A",
"+. c #006473",
"@. c #01657D",
"#. c #006C7B",
"$. c #006976",
"%. c #00717C",
"&. c #00616A",
"*. c #050986",
"=. c #071987",
"-. c #091D94",
";. c #081998",
":. c #072688",
">. c #033B82",
",. c #06338C",
"<. c #053587",
"1. c #092493",
"2. c #082A97",
"3. c #063D94",
"4. c #07359A",
"5. c #12388A",
"6. c #0B1CA4",
"7. c #0C1EB5",
"8. c #0E01AD",
"9. c #0C24A5",
"0. c #0B2CA4",
"q. c #0C26A9",
"w. c #0A37A7",
"e. c #0D2CB2",
"r. c #0C33AF",
"t. c #034384",
"y. c #024A83",
"u. c #02468A",
"i. c #034B8C",
"p. c #0E4A84",
"a. c #02538E",
"s. c #045987",
"d. c #044C93",
"f. c #064699",
"g. c #035493",
"h. c #015C9D",
"j. c #05539B",
"k. c #135298",
"l. c #016B82",
"z. c #036486",
"x. c #017383",
"c. c #007B84",
"v. c #017C8B",
"b. c #02728B",
"n. c #026798",
"m. c #027B93",
"M. c #037697",
"N. c #0847A9",
"B. c #0754A7",
"V. c #0857B2",
"C. c #144FB8",
"Z. c #0463AC",
"A. c #0269A7",
"S. c #0477A6",
"D. c #086AB8",
"F. c #0675B6",
"G. c #1375AC",
"H. c #1139CD",
"J. c #1A2AFF",
"K. c #1937FE",
"L. c #142AE3",
"P. c #1C59D7",
"I. c #1253D7",
"U. c #097BCA",
"Y. c #0D7FDC",
"T. c #087CD3",
"R. c #156FCB",
"E. c #194CFA",
"W. c #1C5DFF",
"Q. c #1757FC",
"!. c #1449E5",
"~. c #215DFF",
"^. c #1667EA",
"/. c #177DE8",
"(. c #156CFE",
"). c #1968FC",
"_. c #1372FD",
"`. c #127CFA",
"'. c #1878F9",
"]. c #0E75E5",
"[. c #00838D",
"{. c #00888F",
"}. c #018392",
"|. c #008B93",
" X c #02889C",
".X c #01939C",
"XX c #0489A6",
"oX c #009BA3",
"OX c #0298A7",
"+X c #0787B8",
"@X c #0F90B6",
"#X c #01A1AB",
"$X c #00A0A6",
"%X c #03A6B3",
"&X c #03B4BD",
"*X c #0985C8",
"=X c #0698CA",
"-X c #0B83DB",
";X c #0B8DDC",
":X c #0987D3",
">X c #099BDC",
",X c #0997D7",
"<X c #1588CF",
"1X c #08A7C9",
"2X c #0AA8D9",
"3X c #06BAD9",
"4X c #0CB1D3",
"5X c #0D83E2",
"6X c #0D88E7",
"7X c #0A96E4",
"8X c #118CFC",
"9X c #1586F9",
"0X c #0F95FB",
"qX c #0D98F5",
"wX c #1394FF",
"eX c #1593F2",
"rX c #118CEE",
"tX c #09A6E6",
"yX c #09B6E6",
"uX c #0BA9F5",
"iX c #0CACFC",
"pX c #0DA1FA",
"aX c #14A5FC",
"sX c #0AB3F4",
"dX c #0ABBF8",
"fX c #11B9FA",
"gX c #14A1EF",
"hX c #04CBD8",
"jX c #01CFD2",
"kX c #07CCE5",
"lX c #05D1E8",
"zX c #07CBF4",
"xX c #09C4FA",
"cX c #09C8F7",
"vX c #05DBF3",
"bX c #08D6F9",
"nX c #03E7EF",
"mX c #04E4F3",
"MX c #03EDF3",
"NX c #06E7FC",
"BX c #02F6F9",
"VX c None",
/* pixels */
"VXVXVXVXVXVXVXVXVXVXVXVXVXVXVXVXVXVXVXVXVXVXVXVXVXVXVX3 = 3 = 3 3 = = = 3 VXVXVXVXVXVXVXVXVXVXVXVXVXVXVXVXVXVXVXVXVXVXVXVXVXVXVX",
"VXVXVXVXVXVXVXVXVXVXVXVXVXVXVXVXVXVXVXVXVXVX3 5 3 = $ $ 3 = 3 = * 3 3 = = * 3 3 5 5 VXVXVXVXVXVXVXVXVXVXVXVXVXVXVXVXVXVXVXVXVXVX",
"VXVXVXVXVXVXVXVXVXVXVXVXVXVXVXVXVXVXVXVX3 3 *   # e Z Z = 3 = 3 n = = 3 e v q O   * 5 5 VXVXVXVXVXVXVXVXVXVXVXVXVXVXVXVXVXVXVXVX",
"VXVXVXVXVXVXVXVXVXVXVXVXVXVXVXVXVX3 3 3 o O n -.9.9.6.Z * 3 3 5 q 3 5 = r -.q.9.-.M O . 3 5 VXVXVXVXVXVXVXVXVXVXVXVXVXVXVXVXVXVX",
"VXVXVXVXVXVXVXVXVXVXVXVXVXVXVXVX= 3   3 1.q.9.=.v w # n * Z # Z O n = n 3 q 5 r =.9.e.=.=   3 = VXVXVXVXVXVXVXVXVXVXVXVXVXVXVXVX",
"VXVXVXVXVXVXVXVXVXVXVXVXVXVX= 5 = = 1.e.1.r * v # Z 4 *.*.6.7.7.7.7.6.=.b Z Z =.* 5 r 1.e.1.3 3 5 = VXVXVXVXVXVXVXVXVXVXVXVXVXVX",
"VXVXVXVXVXVXVXVXVXVXVXVXVX5 * $ 3 A =.w # Z = S 0.I.E.~.~.~.~.~.~.~.~.~.E.*   O 5 =.q v * 1.0.* = 5 * VXVXVXVXVXVXVXVXVXVXVXVXVX",
"VXVXVXVXVXVXVXVXVXVXVX= 3 * r Z * t % Z q 4.P.'.'.).P.C.k.5.I I I I 5.k.C.q.9.=.r   * Z M v # * 3 = 3 3 = VXVXVXVXVXVXVXVXVXVXVX",
"VXVXVXVXVXVXVXVXVXVX= 5 = $ Z Z % S e f.].wX9XR.p.<   = $ $ * 5 r $ 3 n M B S 1.9.0.S   = B V M O 3 5 3 3 = VXVXVXVXVXVXVXVXVXVX",
"VXVXVXVXVXVXVXVXVX3 5 * = 3   D b P -XiXgXG.s   e -.0.:.1.w.2.w.w.=.2.5.5.3.<.H G n w.r.A   r V B = N 6 * 5 3 VXVXVXVXVXVXVXVXVX",
"VXVXVXVXVXVXVXVX= 3 * M 5 - S * G.fXfX<XY m C 9.1.U V # # $ O     ( f O   3 i D <.E   r w.w.4   Y u * 3 5 * 3 = VXVXVXVXVXVXVXVX",
"VXVXVXVXVXVXVX= 5 = = w y u { 4XNX4Xk.e c V A 0 $   O d P y.u.u.5.hXbXsX;XZ.V   & B.H h   Y C.T   u :.O = 6 * 3 = VXVXVXVXVXVXVX",
"VXVXVXVXVXVXVX3 3 = 3 . E q #.NX1XC 5 D :.u O O l z.n.n.g.y.E W T +.m.@X=XgXwX/.2.D L t.g O = N.3.  3 Y 6 G U # 6 VXVXVXVXVXVXVX",
"VXVXVXVXVXVX3 = $ = = t.3   f.D.b = :.v #   ^ }.}.s.h * # # $ $ * $ O     & z.R.'.^.w.h h F d   N.f.  G N # N.T # 3 VXVXVXVXVXVX",
"VXVXVXVXVX3 * y d.* F g   j.V.c 7 B 5 # 3 2. X` $ $ = 9 9 9 9 6 6 8 0 p y 5 #   I R.).I.t.h y.y   4.6.  G Y $ V.4 = 3 VXVXVXVXVX",
"VXVXVXVXVX6   Z.E d }   g.B.m A S - # M 0.S $ * 8 9 6 3 5 5 4 6 4 9 9 8 7 4 9 9 -   p.~.E.f.j y.|   9.-.  i u W B.  6 VXVXVXVXVX",
"VXVXVXVX4 o y.n.8 R   } Z.O =.S 6 o U 0.w O 0 7 4 6 5 > , 8 : 4 5 3 3 = 3 7 6 4 6 t # & P.E.f.a } 0   e.S # >.  B.>.o 4 VXVXVXVX",
"VXVXVX3 3 = F.* P h 4 F.$ v 9.# O Y w.* = 6 4 4 6 6 ; *X5X5X6Xt.t.7X>XgXU.= 9 4 4 4 9 3   P.E.C   P = 3 e.3 $ E 9 V.* 5 VXVXVXVX",
"VXVXVX7   n.s.K )   G.| # 1.4 # G N.$ 4 6 4 6 6 6 w , Y.(.`.wXa.i.iXsXcXtX= 0 7 6 4 4 6 5   P.E.e * s.o =.0.  H o d.d.  6 VXVXVX",
"VXVXVX3 4 XX* K * ) S.  1.B # t N.= = 6 4 4 6 9 9 w , Y._.`.8Xg.d.iXsXxX>X3 h 9 6 6 6 4 6 5 X ^.!.  K P   w.A   t.4 Z.= 3 VXVXVX",
"VXVX7 o b.b.K ..  XXx m 2.* * f.G * 6 4 6 6 9 9 y i : Y.(.`.0Xy.t.iXsXxX,X. * = 0 9 6 6 4 6 # W C.O * z.x e r.o D # g.g.. 4 VXVX",
"VXVX7 # XXk f * ..XX  :.Z   E i.o 9 5 4 6 9 9 y q * ~ -X(.`.8XD.D.iXsXxX7Xk.A.i.5 9 6 6 6 4 6 # -.B # f )   w.U $ t.d y.$ 4 VXVX",
"VX7 * ' OXp l.  XX/ q -.B 1.V.7 4 4 6 6 9 7 y 5 ! F.]._._.`.9X0XqXuXsXxXcXbXNX2X= f 9 9 6 4 6 = u 0.$ = z $ V w.  h 4 # = 5 3 VX",
"VX4 $ ' ' 4 p j OX# u B =.~.k.  t 4 4 9 9 t q ! 6X).Q.(._.`.8XqXpXuXsXdXcXzXmX2X3 f t 9 9 6 4 6 # 1.V $ d o.O w.5 J } $ 4 3 = VX",
"VX= 4 * $ c.O [.[.. i M H.9X2 5 4 6 6 9 9 i $ +XW.E.Q.)._.`.8X0XpXiXdXxXbXvXNX2X5 f 9 9 9 9 4 6 * V 2.O 9 o.  5.,.O h 3 * 3 = VX",
"VX3 = ; t L   S.Q g R m ^.G.  0 4 6 9 9 y 5 _ 9XJ.Q.Q.`.5X-X5X5X;X;X;X,X,X>X2XU.5 g y 9 9 9 6 6 6 = 4.t $ ( ^ m N.  O.d 0 7 3 VX",
"= 3 5 5 e C % 8.$ O.E *.9Xz.# 9 6 6 9 9 d 3 b.'.K.E._.S.P t.i.j.j.i.E U n e e q g i y y t 9 6 6 6 $ ,.U . ( o.# N.S y 7 J 8 = VX",
"5 O =.=.4 3 n 0.O U v w.eX! = 9 6 6 9 t d 3 M.).K.E.5X) u.g.h.A.Z.B.g.i.} R P L g g y 0 t 9 t 6 6 * T ,.# 3 K   C.E.5.{ # 4 3 3 ",
"5   -.S Z 5 S 1.O =.e R.7X. 5 6 6 9 9 t d 3 m.).K.E.].X.>.a.h.A.A.n.a.y.} } L F D g g i t 9 t 6 6 3 N 3.$ 6 x   k.W.=.& 3 = 3 = ",
"5 . 2.Z 6 O :.1.# i c U.2X  0 4 4 9 9 t d q @.'.J.Q.(.:Xn.n.A.A.A.A.h.i.T N L P F g i i i u t 6 w 5 u f.= * #., p.).0.X.3 p = 3 ",
"3 O 0.M :.O 2.Y $ N m ;X=X  y 6 6 9 0 0 y i s ;XK.Q.Q.(.9X8XrXqXqXqXuXuXtX*X,.w L g D i i t t u w 6 6 f.4 = ( : ..'.e.2 f { * 4 ",
"3 O 0.M 6 . 2.U q :.e ,X1X  0 6 6 9 t t y g 5 b.9XK.Q.(.(.`.8X8XpXuXsXdXbXvXzXD.q F g g i i u u r w q 4.6 * @.j ) 9Xr.' ^ }.# 7 ",
"3 # 0.M :.. 4.T q Y c 1X4X  0 6 6 9 9 y y i F 5 M.rX(.)._.`.8X0XpXiXdXxXzXzXmXmXB.6 D D N i M M u w w 6.9 * @.z ^ 9Xr.X ( XXO 7 ",
"4 * V 6 9 . 4.T O ,.e =X3X  0 4 6 9 9 y y d g F e ` F.:X5X6X6X6X7X7X7XtXxXvXvXBXhXe J N N N N B r w v 2.* 3 z * ..wXN.&./ .XO 8 ",
"3 = w = <.$ ,.:.G f.  +XkX# 9 6 6 9 9 y y d g g L D g z ( ..O.O.| | } W D.zXvXMXvX*.d N N N B V M 5 B 2.* 3 Q * z.eXw.+ X. Xo 8 ",
"= 3 * = t # <.3.T N . b.bX! = 7 6 9 9 9 y i g h h J L R R [ | | | | { ) c yXnXMXMXf.6 D N N M M u 3 =.1.$ 5 x.  G.eXk.~ #.|.o 8 ",
"3 3 = O W N G f.G U $ z mX}.O p 4 9 9 9 y y d g D F F L P R [ } [ [ [ ) e tXMXnXMXk.5 D i u u r r = 2.A * 9 @.  +X0XL * [.c.O 8 ",
"= 3 6 N 3 9 4 B.F ,.V   jX4X  d 6 6 9 9 t y t 8 s s s j j l l h h g g q B.zXmXMXmX:.8 i t u t w w 6 4.t * ` #.  2XrX+.Q p a 3 VX",
"VX3 4 6 y >.  B.W <.H   #XmX* 3 6 6 9 9 0 q j =X-X-X-XY.-XY.-X-X;X;X:X7XxXvXvXMXzXe f t t t t w = U 2.$ = ` / , fXT.s z * = 3 VX",
"VX= 3 * 3 i   [ u.W Y * z BX$X  p 6 6 9 0 5 ~ 9XJ.Q.Q.)._.`.8X0XpXuXdXxXzXlXvXBXG.* g t t 9 6 w * 4.N * 5 /   b.fXB.C * ; 4 = VX",
"VX= 3 4 $ E g H.R.d N.g # |.%Xp 3 9 6 6 9 q ! /.J.E.Q.)._.`.8XrXqXuXsXdXzXvXNX,X5 d 9 9 9 6 6 3 G 4.# 3 x /   1XfXL * Z B * 3 VX",
"VX3 3 4 $ 4 < L.'.s t k.p   ` |.O p 4 6 0 5 ! rXW.(.(.(._.`.8X0XpXuXsXxXxXyXD.5 p 9 9 9 6 6 t $ f.N : $ %.Q a cX,XC y 9.Z $ 3 VX",
"VXVX3 $ t.y [ -.'.G.   .t.& $ |.+.$ 0 6 6 6 a m.S.A.M.6X_.].8XD.D.uXsXcX7Xq * d t 9 6 6 6 9 O p.P.* = z ]   OXcXn.* i w.# 5 VXVX",
"VXVX4 . d.g.$ p !.eX1 e V.p = 4 oXj * y 6 6 6 $ $ *   Y._.`.0Xy.u.uXsXxX>X* f 9 9 9 6 6 9 = 1 '.L.% * v.~ $ lXyXc N 2.:.. 3 VXVX",
"VXVXVX5 = Z.9 { 1.9X+X  E g.* - Q OX4 = 0 5 9 0 i y , -X(.`.8Xa.d.uXuXxX>X= d 9 6 6 4 0 3 X /.!.$ * k /   #XNXM.5 : N.3 3 VXVXVX",
"VXVXVX7   g.a.$ k I.wX]   B.P = $ _ oXa * p 4 6 6 w < 5X_.`.wXa.d.iXdXxXtX* p 6 6 6 0 = @ 5X).e % 0 _ $ _ NX3Xe F ,.3.  3 VXVXVX",
"VXVXVX= 3 = F.0 | B 9X2X  J g.  p % / $X` O 9 8 4 6 ; *X5XY.6Xt.t.7X7XtXU.* 0 6 8 y   ! gX'.e # * v.j   hXNXz.e - V.* 5 3 VXVXVX",
"VXVXVXVX4 O p.n.  ( V.iX@X  s.u.* 8 * p .X[.3 $ 6 8 9 8 , 8 7 6 4 3 3 = 3 9 0 0 $   M.aX].5 # 0 #.k   &XBXoXq y j.t.o 4 VXVXVXVX",
"VXVXVXVXVX6   S.{ J > U.fXXX  A.u.  8 = $ %..X#.3 $ = 3 w 0 0 0 0 p p j p =     l.2XaXD.o * * $.$.  M.nXjXb g [ Z.  5 VXVXVXVXVX",
"VXVXVXVXVX4 = 9 +X$ ..^ 5XxX|.  n.h.* 4 0 # a v..Xv.` 0 * $ $ $ $ #   X   ! XXyXxX;XW   = 5 ` f    X}.a ^ i * g.d * 4 VXVXVXVXVX",
"VXVXVXVXVXVX7 O [ S.* l ) 7XcXOX  b.s.q $ : 3 # 7 +.}. X}.v.l.l.z.[.OX1XkXvXzX=Xt.  O * / c.* . XX X  * y.= = $ = 4 VXVXVXVXVXVX",
"VXVXVXVXVXVXVX6 # ( ) f ..p tXbX%X  @.J u.h # 7 3 $ $ = z ` o.@.) jXnXhX1Xb.0   O = f v.` O 9 OXv.  K | o 4 = 4 3 VXVXVXVXVXVXVX",
"VXVXVXVXVXVXVX= 4 $ p = $ @.x =XbXhXc.^ F H y.f 4 * * 7 3 * $ * $ * 3 # > a # p f Q ` k   #.#XX.  ) J h p = 4 3 = VXVXVXVXVXVXVX",
"VXVXVXVXVXVXVXVX3 4 = 3 = 3 k _ S.bXNX&X%.s J g g P P * * * * $ O _ %.#.+.@.( @.@.*   Q OXOX8 # l O.* 8 ^ * 3 = VXVXVXVXVXVXVXVX",
"VXVXVXVXVXVXVXVXVX3 3 = p / - ( s l.3XNXnX&Xc.Q a g | M. X#.#.b.v.}.o.l f X.z   O ' .X$X+.  # s.J   7 = * 3 4 VXVXVXVXVXVXVXVXVX",
"VXVXVXVXVXVXVXVXVXVX= 3 3 4 = # ( Q !  XkXBXBXjXOX{.%.~ * 7 j / ^ * * o # $ / [.$XoX+.O   ` @.o +.' $ 7 5 = VXVXVXVXVXVXVXVXVXVX",
"VXVXVXVXVXVXVXVXVXVXVX3 3 3 = 4 * $ ` 8 _ }.jXjX+.oX$X.X{.c.%.$.+.x.c.|..X$XoX[.j   $ ^ l.# p $ +.Q * 4 3 VXVXVXVXVXVXVXVXVXVXVX",
"VXVXVXVXVXVXVXVXVXVXVXVXVX= 3 - *  Xv.3 / * +.k #   * _ $.[.{.|.|.{.v.%.~ 4   . / Q l.# p v.X.p $ * 4 VXVXVXVXVXVXVXVXVXVXVXVXVX",
"VXVXVXVXVXVXVXVXVXVXVXVXVXVX3 3 = 7 }.OX[.Q j * x.' +.* p . O . o o $ # Q j x.j ` $ j }.OXv.* 3 7 4 VXVXVXVXVXVXVXVXVXVXVXVXVXVX",
"VXVXVXVXVXVXVXVXVXVXVXVXVXVXVXVX= 3 . - c.oXOXc.Q a j k #.Q c.k c.k c.j +.% a Q %.oXOXc.7 . 5 = VXVXVXVXVXVXVXVXVXVXVXVXVXVXVXVX",
"VXVXVXVXVXVXVXVXVXVXVXVXVXVXVXVXVX= 8 5 O # ` [.oXOX[.k * = * p = = * * +..XoX$X|._ # O 3 8 = VXVXVXVXVXVXVXVXVXVXVXVXVXVXVXVXVX",
"VXVXVXVXVXVXVXVXVXVXVXVXVXVXVXVXVXVXVXVX8 7 * . O j _ Q 7 = = ` 8 = 7 * ' +.j # . * 7 8 VXVXVXVXVXVXVXVXVXVXVXVXVXVXVXVXVXVXVXVX",
"VXVXVXVXVXVXVXVXVXVXVXVXVXVXVXVXVXVXVXVXVXVX4 8 8 = * * 3 3 4 * = 3 3 4 * $ = 7 8 7 VXVXVXVXVXVXVXVXVXVXVXVXVXVXVXVXVXVXVXVXVXVX",
"VXVXVXVXVXVXVXVXVXVXVXVXVXVXVXVXVXVXVXVXVXVXVXVXVXVX7 4 = 3 = = 3 = = = 7 8 VXVXVXVXVXVXVXVXVXVXVXVXVXVXVXVXVXVXVXVXVXVXVXVXVXVX"
};
