/* XPM */
static char *result[] = {
/* columns rows colors chars-per-pixel */
"16 16 203 2 ",
"   c black",
".  c #000005",
"X  c #000017",
"o  c #000020",
"O  c #000022",
"+  c #000025",
"@  c #00002B",
"#  c #02002F",
"$  c #00102E",
"%  c #000030",
"&  c #000031",
"*  c #000032",
"=  c #000037",
"-  c #01003A",
";  c #00033B",
":  c #00003C",
">  c #00003D",
",  c #00003E",
"<  c #00073C",
"1  c #001030",
"2  c #00113E",
"3  c #000040",
"4  c #000340",
"5  c #000044",
"6  c #000444",
"7  c #01004D",
"8  c #00004F",
"9  c #001242",
"0  c #001643",
"q  c #001445",
"w  c #00144A",
"e  c #001D4F",
"r  c #000050",
"t  c #000054",
"y  c #010A51",
"u  c #02005A",
"i  c #010E58",
"p  c #010C5A",
"a  c #011652",
"s  c #011F53",
"d  c #001C55",
"f  c #001E54",
"g  c #01115A",
"h  c #01135F",
"j  c #01145C",
"k  c #021D58",
"l  c #002047",
"z  c #002447",
"x  c #002D46",
"c  c #002949",
"v  c #003D45",
"b  c #002056",
"n  c #01295F",
"m  c #003452",
"M  c #003951",
"N  c #003A54",
"B  c #003D56",
"V  c #020061",
"C  c #030067",
"Z  c #040065",
"A  c #020D60",
"S  c #040B66",
"D  c #040068",
"F  c #011361",
"G  c #031066",
"H  c #021965",
"J  c #03176B",
"K  c #02106D",
"L  c #021E68",
"P  c #021A6C",
"I  c #031B6D",
"U  c #041076",
"Y  c #002A65",
"T  c #012A66",
"R  c #03206F",
"E  c #04276E",
"W  c #022968",
"Q  c #023263",
"!  c #023566",
"~  c #033669",
"^  c #03346B",
"/  c #01326D",
"(  c #01356D",
")  c #013E6F",
"_  c #032273",
"`  c #032573",
"'  c #052B79",
"]  c #042C78",
"[  c #033073",
"{  c #023471",
"}  c #053277",
"|  c #023974",
" . c #004159",
".. c #00435B",
"X. c #00405D",
"o. c #00435D",
"O. c #00405E",
"+. c #00435F",
"@. c #004A59",
"#. c #004A5F",
"$. c #01416E",
"%. c #01476E",
"&. c #014E69",
"*. c #005265",
"=. c #005565",
"-. c #005567",
";. c #00516B",
":. c #005A6F",
">. c #005C6D",
",. c #005F6F",
"<. c #034270",
"1. c #034271",
"2. c #034077",
"3. c #024574",
"4. c #014870",
"5. c #03417D",
"6. c #015074",
"7. c #005A71",
"8. c #005D71",
"9. c #025F77",
"0. c #035078",
"q. c #025879",
"w. c #006675",
"e. c #00667B",
"r. c #006D7B",
"t. c #006C7D",
"y. c #016C7E",
"u. c #070881",
"i. c #062E81",
"p. c #072C84",
"a. c #083788",
"s. c #063888",
"d. c #063D91",
"f. c #1126AD",
"g. c #0F3EA7",
"h. c #1135AE",
"j. c #0F3DB1",
"k. c #054C80",
"l. c #05458C",
"z. c #025083",
"x. c #035283",
"c. c #035582",
"v. c #055288",
"b. c #04598D",
"n. c #044E94",
"m. c #074999",
"M. c #074F99",
"N. c #094B9A",
"B. c #065195",
"V. c #016481",
"C. c #046293",
"Z. c #056195",
"A. c #076398",
"S. c #027C97",
"D. c #02719F",
"F. c #027D99",
"G. c #037F9B",
"H. c #0942A3",
"J. c #0B46A1",
"K. c #0C46A2",
"L. c #094AA1",
"P. c #0E49AC",
"I. c #0C52A6",
"U. c #0E50B1",
"Y. c #0B56BA",
"T. c #0560A0",
"R. c #0467AB",
"E. c #0563AD",
"W. c #0969AF",
"Q. c #0672AC",
"!. c #046BBA",
"~. c #0A6CB8",
"^. c #067DBA",
"/. c #057BBD",
"(. c #047ABF",
"). c #057FBC",
"_. c #0C5EC6",
"`. c #0962C1",
"'. c #0A62C1",
"]. c #086DC3",
"[. c #0876D1",
"{. c #126AE6",
"}. c #1563F5",
"|. c #1567F7",
" X c #018693",
".X c #02829C",
"XX c #01909C",
"oX c #0385AD",
"OX c #0192A1",
"+X c #0980B8",
"@X c #068CBD",
"#X c #039DB3",
"$X c #03A0B8",
"%X c #0596C1",
"&X c #0690D4",
"*X c #07ADD7",
"=X c #1180FC",
"-X c #1280FF",
";X c #0AB6FA",
":X c #0BB9FD",
">X c #05D1EB",
",X c #06D1EE",
"<X c None",
/* pixels */
"<X<X<X<X<X3 8 : ; p A <X<X<X<X<X",
"<X<X<X+ u H.j.h.f.u.U G & <X<X<X",
"<X<X@ 4.+XI.a.' A.M._ H g > <X<X",
"<Xf i b.k.s N < X.v.P.s.L ` k <X",
"<X$.3.S V , | `.).Y - g.] R { <X",
"m 8.1.p.e 1 _.-X;X*X, y E W T q ",
"7 Q l.N.  L.}.!.(.oXn 6 j ^ i.* ",
"I D B.c.  m.|.[.&XD.t d h ~ U.c ",
"a C C.V.> z n.]./.,XF.r P ! W.*.",
"= J x. XO 5.Y.E.R.>X.X% F 0.Q.$ ",
"X d.K.=.M [ {.=X:X%X  } Z S.T.# ",
"<X( ~.2. .v ) '.^./ <.J.9.#XK <X",
"<Xl z.@Xq.w +.x w.G.Z.X.t.6.5 <X",
"<X<Xo %.$XOX;.&.y.7.@.:.b @ <X<X",
"<X<X<X. o.XXr.>.-.,.e.O.2 <X<X<X",
"<X<X<X<X<X0 B 4 9 #...<X<X<X<X<X"
};
