<?xml version="1.0" standalone="no"?>
<!DOCTYPE svg PUBLIC "-//W3C//DTD SVG 20010904//EN"
 "http://www.w3.org/TR/2001/REC-SVG-20010904/DTD/svg10.dtd">
<svg version="1.0" xmlns="http://www.w3.org/2000/svg"
 width="1024.000000pt" height="1024.000000pt" viewBox="0 0 1024.000000 1024.000000"
 preserveAspectRatio="xMidYMid meet">
<metadata>
Created by potrace 1.16, written by Peter Selinger 2001-2019
</metadata>
<g transform="translate(0.000000,1024.000000) scale(0.100000,-0.100000)"
fill="#000000" stroke="none">
<path d="M0 5120 l0 -5120 5120 0 5120 0 0 5120 0 5120 -5120 0 -5120 0 0
-5120z m5450 4039 c119 -10 382 -46 413 -55 18 -6 22 -30 9 -52 -7 -10 -31 -9
-123 7 -223 39 -317 46 -639 46 -352 0 -468 -11 -765 -70 -819 -163 -1591
-595 -2164 -1209 -379 -408 -692 -950 -864 -1498 -56 -181 -63 -197 -82 -192
-11 4 -23 9 -27 13 -13 12 128 423 205 599 215 489 505 907 881 1269 l146 140
-60 66 c-33 36 -60 67 -60 70 0 6 240 198 330 264 115 85 369 237 558 334
l197 100 260 2 260 2 175 47 c193 51 422 93 624 113 162 16 572 19 726 4z m30
-404 c0 -8 -7 -15 -15 -15 -13 0 -14 3 -3 15 16 18 18 18 18 0z m268 -21 c54
-11 82 -21 82 -30 0 -17 -1 -17 -75 1 -33 8 -75 14 -92 15 -23 0 -33 5 -33 15
0 19 16 19 118 -1z m257 -54 c81 -18 185 -51 185 -60 0 -19 -21 -18 -86 4 -38
12 -99 29 -136 35 -50 10 -65 17 -61 27 3 8 14 12 27 9 11 -3 44 -10 71 -15z
m590 -96 c8 -29 18 -68 22 -85 5 -26 15 -35 54 -53 27 -11 49 -27 49 -35 0 -8
-7 -11 -17 -8 -68 22 -67 22 -60 -4 4 -13 14 -60 23 -104 l16 -81 126 -68
c177 -97 401 -253 572 -399 150 -128 177 -154 167 -163 -2 -3 -76 56 -163 131
-186 159 -389 302 -582 410 l-138 77 -22 111 c-13 61 -25 114 -28 119 -3 5
-23 16 -45 25 -21 8 -39 21 -39 29 0 17 14 18 42 3 11 -6 22 -9 24 -6 3 2 -3
35 -12 72 -16 64 -19 69 -55 83 -21 8 -36 18 -34 23 3 4 23 0 45 -8 35 -14 41
-22 55 -69z m-227 -10 c24 -7 31 -34 8 -34 -25 0 -46 12 -46 26 0 16 5 16 38
8z m-3994 -23 c6 -10 -96 -101 -113 -101 -28 0 -15 23 36 64 61 48 68 52 77
37z m3136 -71 c90 -11 225 -34 300 -51 221 -50 537 -155 548 -181 2 -5 8 -6
13 -2 5 3 8 1 7 -4 -2 -6 49 -63 112 -128 86 -87 136 -129 200 -167 373 -220
685 -499 942 -841 83 -111 89 -121 72 -133 -10 -7 -20 -13 -23 -12 -3 0 -33
39 -66 86 -126 181 -364 433 -555 586 -152 123 -376 265 -565 357 -336 165
-625 253 -1005 305 -160 23 -499 30 -657 16 -388 -37 -780 -152 -1136 -334
-131 -68 -160 -79 -167 -67 -5 8 -10 18 -10 21 0 13 305 161 438 213 166 65
384 130 527 157 228 44 293 51 558 56 l267 6 0 68 c0 60 2 69 18 69 10 0 92
-9 182 -20z m1463 -192 c76 -43 99 -64 76 -71 -9 -3 -239 124 -239 132 0 28
12 24 163 -61z m-4900 -14 c-78 -70 -97 -54 -23 21 43 44 56 52 68 43 11 -10
4 -21 -45 -64z m5708 -106 c68 -58 137 -120 153 -137 29 -30 29 -31 10 -52
l-19 -21 -35 40 c-25 28 -285 255 -327 287 -2 1 19 -1 45 -5 44 -5 62 -17 173
-112z m994 -70 c187 -223 399 -545 544 -828 83 -162 201 -429 201 -455 0 -22
-29 -31 -44 -14 -7 8 -30 57 -51 109 -156 386 -395 789 -675 1137 -86 107 -99
131 -83 147 13 13 29 -1 108 -96z m-1535 10 c0 -16 -21 -18 -45 -2 -20 13 -23
20 -14 30 9 11 15 11 35 -4 13 -9 24 -20 24 -24z m-5346 -6 c2 -4 -20 -34 -49
-67 -39 -44 -56 -57 -65 -49 -8 8 2 26 37 67 45 54 66 67 77 49z m5600 -184
c23 -20 28 -29 20 -38 -9 -9 -30 4 -85 51 -41 34 -75 63 -77 64 -1 1 0 10 4
19 6 16 10 14 138 -96z m-6118 7 c3 -8 -40 -80 -105 -174 -217 -315 -452 -784
-560 -1121 -35 -110 -51 -146 -65 -148 -38 -8 -38 14 4 149 106 337 346 818
569 1141 113 163 142 192 157 153z m299 -75 c9 -14 -85 -129 -101 -123 -16 6
1 40 49 99 29 35 42 41 52 24z m6040 -135 c120 -131 101 -145 -26 -19 -54 54
-96 101 -93 106 13 20 37 2 119 -87z m1045 -102 c0 -29 -27 -9 -67 46 -29 42
-38 62 -31 69 8 8 24 -5 54 -46 24 -31 44 -63 44 -69z m-7276 -31 c8 -14 -77
-133 -93 -130 -22 4 -19 13 24 78 38 56 57 71 69 52z m6454 -133 c-19 -12 -53
24 -44 48 7 16 10 15 32 -11 20 -23 23 -31 12 -37z m-2938 -319 l0 -360 120 0
120 0 0 360 0 360 278 -2 c152 -1 256 -3 230 -5 -73 -6 -57 -22 25 -25 l72 -3
3 -357 2 -358 118 -2 c64 -1 126 -2 137 -3 11 -1 64 -3 118 -4 l97 -1 0 -278
0 -279 -107 -6 c-58 -4 -198 -7 -310 -7 -129 0 -203 -4 -203 -10 0 -5 17 -11
38 -12 20 -1 -242 -5 -583 -8 l-620 -5 -59 -24 c-123 -49 -189 -158 -190 -311
-1 -162 61 -258 200 -313 79 -30 193 -37 662 -38 257 -1 494 -5 527 -9 33 -4
52 -8 43 -9 -32 -2 -19 -20 20 -27 176 -31 261 -57 383 -120 295 -152 440
-423 439 -821 -1 -300 -75 -507 -245 -679 -108 -109 -247 -187 -407 -228 l-53
-13 -5 -374 -5 -374 -72 -3 c-77 -3 -99 -18 -35 -25 20 -2 -83 -4 -230 -5
l-268 -2 0 360 0 360 -120 0 -120 0 0 -360 0 -360 -320 0 -320 0 0 360 0 360
-330 0 -330 0 0 320 0 320 969 0 c533 0 983 3 1000 6 24 5 31 3 31 -9 0 -13 6
-14 38 -5 95 26 174 95 219 193 38 84 44 214 14 313 -22 74 -74 144 -135 182
-33 20 -146 63 -146 55 0 -2 8 -11 17 -21 16 -16 16 -16 -3 -10 -64 20 -227
26 -664 26 -511 -1 -575 3 -738 45 -313 83 -533 286 -612 567 -100 353 -48
728 133 975 103 138 309 263 510 307 l27 6 0 375 0 375 320 0 320 0 0 -360z
m-2735 275 c-20 -25 -41 -45 -46 -45 -11 0 2 21 46 71 43 51 44 27 0 -26z
m6639 -4 c38 -63 44 -81 23 -81 -15 0 -88 120 -81 132 11 17 24 6 58 -51z
m-801 -143 c42 -59 55 -84 46 -92 -8 -8 -15 -5 -25 9 -8 11 -35 48 -60 82 -40
55 -49 83 -26 83 4 0 33 -37 65 -82z m-6799 46 c13 -5 10 -15 -16 -62 -40 -73
-55 -89 -68 -76 -7 7 1 31 27 77 20 37 38 67 39 67 1 0 9 -3 18 -6z m827 -82
c-11 -21 -41 -48 -41 -38 0 4 7 18 16 31 19 29 40 34 25 7z m564 -47 c-168
-199 -335 -484 -455 -776 -420 -1023 -274 -2167 392 -3061 149 -200 373 -428
571 -582 194 -150 460 -306 694 -404 1151 -486 2472 -243 3369 620 179 173
385 427 500 619 36 59 42 65 52 49 9 -15 3 -31 -34 -90 -24 -39 -44 -76 -44
-80 0 -12 -164 -235 -228 -310 -30 -36 -103 -114 -161 -173 -58 -59 -99 -105
-91 -102 10 3 30 -10 55 -36 l40 -41 -60 -56 c-286 -267 -697 -510 -1100 -649
-249 -86 -552 -154 -751 -169 l-92 -7 -7 69 -7 69 -241 1 c-266 1 -404 15
-645 64 -461 95 -937 321 -1322 626 -141 113 -424 404 -525 541 -107 145 -208
304 -271 425 l-45 88 -59 -30 c-33 -17 -61 -30 -64 -30 -26 0 -185 405 -236
602 -78 302 -110 554 -110 868 0 254 23 454 81 706 l42 181 35 -39 c19 -21 37
-36 40 -33 3 2 11 0 19 -7 7 -6 15 -9 16 -7 2 2 26 74 54 159 28 85 72 203 97
263 92 213 278 527 418 702 50 63 70 80 90 80 25 0 25 -1 -17 -50z m6373 -70
c37 -76 36 -71 17 -79 -11 -4 -25 14 -50 63 -19 38 -31 71 -28 75 16 16 31 1
61 -59z m-754 -177 c43 -78 50 -108 27 -108 -4 0 -15 17 -25 38 -10 20 -40 75
-68 121 -38 63 -47 85 -37 92 16 9 37 -20 103 -143z m-6358 21 c-31 -55 -56
-106 -55 -112 3 -25 -1 -38 -11 -32 -5 3 -10 15 -10 26 0 24 123 245 128 230
2 -6 -22 -56 -52 -112z m-802 39 c-14 -46 -56 -128 -65 -128 -21 0 -18 29 11
93 22 49 34 65 45 61 10 -4 13 -13 9 -26z m8049 -186 c31 -79 32 -85 11 -80
-16 3 -76 133 -66 142 16 17 31 -1 55 -62z m-8181 -98 c6 -5 -36 -141 -46
-151 -2 -2 -10 -1 -19 2 -13 6 -12 16 10 81 22 66 38 86 55 68z m7426 -29 c15
-32 15 -32 -3 -39 -17 -6 -39 29 -31 50 8 21 21 17 34 -11z m870 -183 c26 -81
26 -78 8 -85 -11 -4 -21 12 -37 61 -12 37 -24 73 -27 80 -2 7 4 12 15 12 15 0
24 -15 41 -68z m-760 -82 c31 -83 34 -110 13 -110 -5 0 -24 42 -42 92 -19 51
-35 96 -37 100 -2 5 5 8 15 8 15 0 26 -20 51 -90z m-7654 -97 c-13 -42 -25
-77 -26 -78 -2 -1 -10 0 -19 4 -13 5 -12 15 8 83 20 64 26 75 42 71 18 -4 17
-8 -5 -80z m8505 -120 c7 -32 15 -68 18 -80 4 -18 1 -23 -16 -23 -13 0 -21 6
-21 18 0 10 -6 42 -14 72 -11 41 -11 57 -3 62 21 13 24 9 36 -49z m-770 -25
c11 -38 46 -169 55 -211 6 -23 4 -28 -10 -25 -13 2 -26 36 -50 128 -39 146
-38 140 -20 140 8 0 19 -15 25 -32z m-7009 11 c0 -6 -11 -52 -24 -103 -14 -50
-30 -111 -36 -135 -8 -30 -15 -40 -22 -33 -18 18 50 282 73 282 5 0 9 -5 9
-11z m8108 -127 c3 -18 -1 -22 -22 -22 -19 0 -26 5 -26 18 0 39 43 43 48 4z
m-690 -40 c18 5 22 0 27 -36 4 -22 11 -49 16 -58 12 -22 55 -294 70 -443 7
-66 13 -223 13 -350 l1 -230 83 3 82 3 0 -40 c0 -72 -31 -341 -56 -491 -97
-579 -350 -1183 -710 -1697 -96 -137 -238 -313 -252 -313 -4 0 -36 25 -71 54
l-63 55 -141 -146 c-508 -523 -1099 -884 -1784 -1088 -409 -122 -813 -174
-1263 -162 -366 10 -689 63 -1065 176 -55 17 -103 27 -106 23 -4 -4 -17 -42
-29 -84 -13 -43 -26 -78 -30 -78 -37 0 -400 150 -573 236 -248 125 -541 320
-797 532 -166 138 -428 405 -561 572 -147 185 -166 212 -286 405 l-99 160 101
-5 101 -5 -60 105 c-226 398 -405 916 -476 1379 -25 160 -25 171 -1 171 11 0
22 8 24 18 3 9 5 1 6 -18 2 -53 38 -270 67 -400 107 -479 345 -1015 631 -1422
133 -189 283 -369 448 -534 320 -321 618 -537 1020 -739 439 -221 839 -342
1375 -417 144 -20 726 -17 897 5 1299 164 2424 928 3044 2066 230 421 380 881
450 1382 30 216 38 678 15 899 -15 140 -67 471 -82 517 -5 14 -4 15 4 4 6 -8
19 -12 30 -9z m430 -156 c7 -35 12 -71 12 -80 0 -22 -27 -21 -34 2 -4 15 -26
130 -26 139 0 2 8 3 18 3 15 0 21 -13 30 -64z m-742 -133 c-12 -12 -36 8 -36
31 0 36 24 38 33 3 5 -16 6 -32 3 -34z m-492 -213 c9 -90 16 -190 16 -222 0
-51 -2 -58 -20 -58 -18 0 -20 7 -20 63 0 64 -15 259 -26 336 -5 37 -3 43 10
38 9 -4 16 -1 16 5 0 6 2 9 4 7 3 -2 12 -78 20 -169z m1270 58 c3 -13 7 -49
10 -80 6 -52 4 -58 -13 -58 -15 0 -19 10 -25 53 -10 83 -8 107 9 107 8 0 17
-10 19 -22z m-751 -12 c3 -7 8 -54 12 -105 7 -78 5 -91 -8 -91 -11 0 -16 16
-21 58 -4 31 -9 78 -12 105 -5 37 -3 47 9 47 8 0 17 -6 20 -14z m1062 -146 c0
-29 -32 -41 -41 -16 -9 24 4 48 23 44 12 -2 18 -12 18 -28z m13 -319 c2 -153
-3 -247 -23 -440 -14 -135 -28 -263 -32 -283 -7 -49 -25 -73 -48 -64 -15 5
-17 14 -11 64 45 373 56 510 56 702 0 114 3 210 7 214 4 4 16 6 28 4 19 -3 20
-10 23 -197z m-298 89 c0 -73 -2 -80 -20 -80 -18 0 -20 7 -20 80 0 73 2 80 20
80 18 0 20 -7 20 -80z m-750 -70 c0 -118 -2 -140 -15 -140 -13 0 -15 22 -15
140 0 118 2 140 15 140 13 0 15 -22 15 -140z m-7126 -207 c-30 -22 -39 -15
-13 13 15 16 25 21 28 13 2 -7 -4 -18 -15 -26z m7872 -19 c-3 -26 -6 -62 -6
-80 0 -28 -4 -34 -21 -34 -20 0 -21 4 -15 53 3 28 6 64 6 80 0 21 5 27 21 27
20 0 21 -4 15 -46z m-7931 -34 c-8 -9 -22 -17 -30 -17 -13 0 -13 2 0 17 8 9
22 17 30 17 13 0 13 -2 0 -17z m7170 -31 c11 -16 -4 -59 -20 -59 -10 0 -15 10
-15 28 0 39 20 56 35 31z m-7265 -49 c0 -6 -34 -43 -76 -83 l-76 -73 41 -205
c37 -186 124 -504 166 -602 15 -36 26 -44 155 -105 77 -37 139 -69 140 -72 0
-3 38 -77 84 -165 81 -156 225 -388 293 -472 l34 -43 -2 -105 c-1 -90 1 -109
17 -128 156 -184 424 -435 609 -572 l70 -52 29 -117 c16 -64 34 -123 40 -131
34 -43 470 -262 707 -355 84 -34 430 -140 454 -140 27 0 285 137 285 151 0 4
-16 10 -35 13 -22 5 -35 13 -35 23 0 12 7 14 28 9 15 -3 59 -11 97 -18 39 -7
73 -17 77 -22 9 -13 142 -27 146 -15 5 14 49 11 64 -4 16 -16 148 -31 148 -17
0 6 56 10 138 10 159 0 136 -12 276 143 44 48 82 83 85 78 7 -10 240 24 411
60 149 31 160 33 160 21 0 -6 -39 -20 -87 -31 -100 -23 -432 -81 -466 -81 -16
0 -55 -34 -130 -115 l-108 -115 -169 0 c-104 0 -242 8 -362 21 -106 12 -197
21 -203 21 -5 0 -50 -23 -99 -51 -49 -29 -116 -66 -149 -82 -57 -29 -62 -30
-111 -18 -123 29 -474 152 -617 216 -124 55 -444 223 -517 271 -8 5 -29 67
-48 137 -18 70 -35 128 -36 129 -146 91 -553 466 -666 613 l-32 41 6 99 c6 95
6 99 -18 128 -59 70 -228 342 -305 492 l-84 161 -137 67 -138 66 -27 72 c-66
178 -123 399 -172 661 l-25 139 72 77 c68 73 98 94 98 70z m-413 -82 c-3 -7
-5 -2 -5 12 0 14 2 19 5 13 2 -7 2 -19 0 -25z m7652 -130 c-20 -125 -30 -157
-46 -151 -11 4 -13 14 -9 37 4 17 12 61 18 99 9 51 16 67 29 67 14 0 15 -7 8
-52z m757 20 c-3 -13 -8 -49 -11 -80 -5 -49 -10 -58 -26 -58 -15 0 -18 5 -15
23 3 12 8 48 11 80 5 48 10 57 26 57 15 0 18 -5 15 -22z m-8703 -226 c6 -28 4
-33 -10 -30 -24 4 -51 137 -31 149 13 8 20 -12 41 -119z m7897 -26 c0 -24 -28
-147 -49 -211 -11 -37 -25 -61 -35 -63 -21 -4 -20 -3 8 92 13 45 30 107 36
139 7 37 16 57 26 57 8 0 14 -6 14 -14z m746 -98 c-11 -70 -26 -118 -37 -118
-18 0 -21 29 -9 82 17 76 18 78 36 78 14 0 15 -7 10 -42z m-8898 -41 c4 -20
-25 -34 -40 -19 -15 15 -1 44 19 40 10 -2 19 -11 21 -21z m312 -114 c14 -60
15 -73 3 -77 -15 -6 -28 21 -38 80 -4 22 -9 47 -12 57 -4 14 0 18 13 15 12 -2
22 -23 34 -75z m7716 -187 c-3 -11 -6 -24 -6 -28 0 -5 -9 -8 -19 -8 -17 0 -18
4 -9 34 12 38 44 40 34 2z m-7628 -113 c11 -32 23 -66 27 -75 5 -14 2 -18 -12
-18 -15 0 -24 15 -41 68 -26 81 -26 82 -8 82 8 0 22 -24 34 -57z m7548 -61
c15 -9 -63 -192 -82 -192 -21 0 -18 17 23 112 39 91 41 93 59 80z m-7426 -265
c24 -57 26 -69 14 -74 -8 -3 -16 -4 -18 -2 -12 13 -55 133 -50 141 12 18 26 1
54 -65z m-258 -117 c164 -391 401 -788 673 -1128 105 -131 120 -162 76 -162
-46 0 -357 426 -536 735 -127 220 -314 628 -301 660 15 39 41 8 88 -105z
m7553 91 c3 -6 -25 -64 -62 -130 -52 -95 -69 -118 -80 -110 -7 6 -11 14 -9 18
126 231 136 245 151 222z m-7160 -270 c29 -58 32 -71 20 -81 -11 -9 -20 1 -50
61 -29 57 -34 74 -23 80 7 5 14 9 15 9 2 0 18 -31 38 -69z m6945 -100 c0 -3
-9 -17 -20 -31 -14 -19 -22 -22 -30 -14 -16 16 15 65 36 57 8 -3 14 -8 14 -12z
m-5936 -143 c-8 -13 -26 4 -73 71 -58 83 -30 85 31 3 26 -36 45 -69 42 -74z
m6773 82 c-38 -69 -35 -66 -48 -53 -15 15 39 109 62 109 14 0 12 -9 -14 -56z
m346 5 c-143 -280 -408 -695 -445 -695 -42 0 -26 34 89 202 66 95 164 252 217
348 91 161 100 175 126 175 28 0 28 0 13 -30z m-7970 -136 c30 -50 35 -64 25
-76 -10 -12 -19 -3 -54 53 -24 37 -41 72 -38 76 12 19 31 4 67 -53z m6661 22
c6 -9 -120 -161 -134 -161 -27 0 -14 28 42 94 60 71 81 86 92 67z m-5674 -133
c0 -19 -21 -16 -35 6 -23 35 -8 56 16 25 10 -13 19 -27 19 -31z m6478 -31
c-23 -34 -42 -64 -44 -66 -2 -2 -10 -1 -19 3 -14 5 -11 13 16 53 46 69 59 82
75 76 10 -4 3 -21 -28 -66z m-7282 -133 c38 -52 44 -68 33 -75 -16 -10 -20 -6
-72 67 -28 39 -34 53 -25 62 7 7 13 12 14 12 2 0 24 -30 50 -66z m6274 47 c0
-3 -42 -49 -94 -100 -72 -71 -98 -92 -112 -87 -15 6 0 24 81 106 58 58 103 96
111 93 8 -3 14 -8 14 -12z m-5177 -193 c-11 -19 -34 -2 -116 87 -123 132 -103
148 23 19 54 -54 96 -102 93 -106z m6017 36 c-8 -14 -29 -42 -46 -62 -26 -30
-35 -35 -45 -25 -10 10 -8 18 12 40 14 16 36 43 49 61 16 24 26 30 33 23 7 -7
6 -18 -3 -37z m-6908 -154 c38 -47 45 -60 34 -69 -11 -9 -25 2 -67 50 -42 48
-50 63 -38 70 20 13 20 13 71 -51z m1086 -37 c33 -30 49 -52 45 -60 -11 -15
-163 115 -156 134 6 15 30 -1 111 -74z m4666 58 c3 -4 -6 -19 -20 -32 -21 -20
-27 -21 -34 -9 -6 10 -4 20 7 32 17 19 38 23 47 9z m961 -91 c3 -6 -17 -37
-46 -70 -41 -47 -55 -58 -65 -49 -11 9 -4 23 37 70 52 60 63 67 74 49z m-1128
-46 c2 -6 -33 -37 -77 -69 -64 -45 -84 -55 -93 -46 -9 10 -8 16 8 27 11 8 47
34 80 59 59 43 75 49 82 29z m-4279 -101 c-9 -11 -15 -10 -32 4 -12 10 -23 19
-25 20 -1 1 0 7 4 12 4 8 16 6 35 -6 23 -13 27 -20 18 -30z m-1089 -28 c44
-46 51 -58 41 -70 -15 -18 -24 -12 -81 56 -36 43 -43 69 -20 69 5 0 32 -25 60
-55z m5104 -48 c5 -14 -79 -71 -182 -122 -38 -19 -57 -23 -64 -16 -13 13 -18
9 78 61 44 24 96 54 115 67 40 27 46 28 53 10z m-3740 -77 c93 -51 107 -63 89
-74 -8 -4 -217 105 -236 124 -4 4 -5 13 -1 20 5 8 13 7 28 -3 12 -7 66 -38
120 -67z m4905 57 c16 -19 -104 -125 -121 -107 -9 9 1 24 47 66 33 30 60 54
61 54 2 0 7 -6 13 -13z m-6560 -51 c-2 -13 -10 -21 -23 -21 -23 0 -33 34 -14
45 20 13 40 -1 37 -24z m577 -175 c-12 -12 -22 -7 -75 39 -48 41 -58 55 -49
66 9 11 23 4 75 -39 54 -45 61 -54 49 -66z m1365 24 c102 -43 100 -43 94 -59
-4 -11 -27 -4 -100 27 -52 23 -94 47 -94 54 0 19 10 17 100 -22z m3077 9 c6
-17 -48 -37 -61 -24 -8 8 -6 15 9 26 21 16 46 15 52 -2z m1247 -91 c-33 -29
-63 -51 -69 -49 -25 7 -10 35 43 77 44 36 60 44 71 36 11 -9 2 -22 -45 -64z
m430 31 c21 -8 21 -43 0 -51 -8 -3 -23 1 -31 10 -13 13 -14 19 -3 31 14 18 13
18 34 10z m-1870 -19 c6 -16 -10 -24 -124 -66 -49 -18 -63 -20 -73 -9 -7 8 -8
14 -2 17 37 15 181 71 186 72 4 0 9 -6 13 -14z m-2602 -43 c11 -5 14 -12 9
-20 -10 -17 -61 -5 -61 14 0 15 23 17 52 6z m-1443 -57 c41 -31 58 -51 54 -61
-7 -19 -11 -18 -83 35 -47 35 -58 47 -49 57 6 8 13 14 15 14 2 0 31 -20 63
-45z m1662 -14 c30 -10 91 -26 137 -36 78 -17 94 -26 72 -40 -20 -13 -280 56
-280 74 0 7 10 21 15 21 1 0 26 -8 56 -19z m2079 4 c0 -16 -84 -43 -243 -79
-23 -6 -28 -4 -25 10 2 13 35 26 123 50 142 38 145 38 145 19z m1533 -49 c6
-14 -11 -30 -89 -84 -27 -18 -34 -20 -43 -8 -10 11 0 23 51 60 70 51 74 52 81
32z m-5588 -66 c0 -29 -32 -41 -41 -16 -9 24 4 48 23 44 12 -2 18 -12 18 -28z
m3638 16 c4 -9 -3 -16 -16 -20 -35 -9 -47 -7 -47 8 0 25 54 36 63 12z m-213
-30 c0 -19 -17 -23 -116 -32 -58 -4 -83 -3 -89 5 -4 7 -5 14 -3 16 3 3 135 19
191 24 9 0 17 -5 17 -13z m-2818 -65 c36 -25 47 -44 30 -55 -5 -3 -39 15 -76
40 -56 38 -65 48 -55 60 13 16 16 14 101 -45z m4706 -43 c10 -10 -2 -21 -55
-55 -65 -40 -83 -45 -83 -20 0 10 104 84 121 86 3 1 10 -4 17 -11z m430 -74
c2 -16 -9 -29 -46 -53 -51 -33 -82 -33 -82 -1 0 20 87 81 110 77 8 -1 16 -12
18 -23z m-4818 -70 c10 -10 11 -17 3 -25 -8 -8 -29 -1 -77 26 -36 20 -66 38
-66 40 0 2 3 10 6 19 5 13 15 10 62 -16 32 -17 64 -37 72 -44z m4104 -19 c4
-11 -14 -25 -65 -50 -65 -33 -89 -37 -89 -15 0 9 125 78 141 80 4 0 9 -7 13
-15z m-3848 -101 c30 -13 54 -28 54 -34 0 -22 -29 -20 -93 9 -51 23 -65 34
-61 46 7 18 18 15 100 -21z m3544 -43 c0 -14 -17 -26 -65 -45 -76 -31 -88 -32
-83 -9 2 10 30 28 68 44 79 33 80 34 80 10z m614 3 c21 -8 21 -43 0 -51 -8 -3
-23 1 -31 10 -13 13 -14 19 -3 31 14 18 13 18 34 10z m-4512 -98 c391 -202
784 -342 1203 -429 103 -22 110 -25 110 -48 0 -22 -3 -24 -42 -21 -60 3 -272
53 -455 106 -168 49 -366 120 -538 193 -130 55 -476 231 -491 249 -14 17 -5
44 15 44 8 0 97 -42 198 -94z m715 -10 c2 -2 1 -10 -2 -19 -6 -13 -16 -12 -81
10 -66 22 -86 38 -68 55 5 6 141 -36 151 -46z m3678 15 c0 -20 -20 -34 -145
-97 -359 -182 -872 -355 -1236 -415 -139 -23 -164 -22 -164 10 0 21 -7 19 172
51 375 66 834 221 1194 404 82 41 156 74 164 73 8 -1 15 -13 15 -26z m-803
-29 c4 -16 -8 -23 -73 -44 -73 -24 -78 -25 -82 -7 -4 15 8 22 67 43 88 30 83
30 88 8z m-2556 -85 c1 -1 -1 -9 -5 -19 -5 -15 -12 -14 -79 7 -84 27 -84 27
-77 47 5 13 17 12 83 -9 42 -13 77 -25 78 -26z m2238 -13 c3 -9 6 -17 6 -19 0
-4 -133 -35 -149 -35 -6 0 -11 8 -11 18 0 16 43 31 141 51 4 0 10 -6 13 -15z
m-2036 -28 c72 -16 74 -17 63 -35 -7 -11 -21 -11 -80 0 -72 12 -87 20 -76 39
8 13 16 12 93 -4z m1712 -44 c0 -15 -13 -21 -64 -30 -35 -7 -71 -12 -80 -12
-24 0 -19 29 7 35 127 30 137 30 137 7z m-1377 -17 c48 -5 57 -10 57 -26 0
-15 -5 -18 -22 -15 -13 3 -49 8 -80 11 -49 5 -58 10 -58 26 0 15 5 18 23 15
12 -3 48 -8 80 -11z m1047 -30 c0 -19 -8 -22 -92 -29 -63 -6 -68 -5 -68 13 0
21 19 25 118 29 32 2 42 -2 42 -13z m-687 -5 c21 0 27 -5 27 -21 0 -20 -4 -21
-52 -15 -29 3 -65 6 -80 6 -22 0 -28 5 -28 21 0 20 4 21 53 15 28 -3 64 -6 80
-6z m357 -20 c0 -18 -7 -20 -80 -20 -73 0 -80 2 -80 20 0 18 7 20 80 20 73 0
80 -2 80 -20z m-830 -235 c0 -20 -5 -25 -25 -25 -20 0 -25 5 -25 25 0 20 5 25
25 25 20 0 25 -5 25 -25z m648 -53 c4 -30 -26 -42 -44 -17 -10 14 -11 22 -2
32 16 20 42 12 46 -15z"/>
<path d="M4400 7078 l0 -373 -92 -22 c-230 -56 -420 -197 -517 -382 -146 -281
-145 -718 1 -994 120 -225 390 -385 697 -413 l71 -7 0 261 0 261 -42 12 c-116
31 -211 110 -249 207 -19 46 -23 77 -23 162 -1 94 2 111 26 163 15 32 41 76
57 96 33 42 127 96 187 109 l39 8 5 642 5 642 -82 0 -83 0 0 -372z"/>
<path d="M3740 3790 l0 -280 330 0 330 0 0 -360 0 -360 93 1 c50 0 86 3 80 6
-10 4 -13 141 -13 639 l0 634 -410 0 -410 0 0 -280z"/>
<path d="M1410 4685 c-24 -25 -42 -45 -39 -45 3 0 25 20 49 45 24 25 42 45 39
45 -3 0 -25 -20 -49 -45z"/>
</g>
</svg>
